# xmcd
#
# Track frame offsets:
#	150
#	21459
#	40421
#	55661
#	74920
#	89826
#	108539
#	125470
#	148477
#	163705
#	184374
#	201597
#	215973
#	228587
#	247496
#	264162
#
# Disc length: 3742 seconds
#
# Revision: 1
# Processed by: cddbd v1.5.1PL0 Copyright (c) Steve Scherf et al.
# Submitted via: audiograbber 1.83.01
#
DISCID=180e9c10
DTITLE=Elita 5 - Hitet 2001
DYEAR=1900
DGENRE=
TTITLE0=E urrej shiun
TTITLE1=Nuk te them te dua
TTITLE2=Erresira
TTITLE3=Sajzeza
TTITLE4=Trishtimi
TTITLE5=Une e di
TTITLE6=Te pres
TTITLE7=Dashuaria e pare
TTITLE8=Udhetari i nates
TTITLE9=Sinfonia e detit
TTITLE10=Al Kapone
TTITLE11=Ç'ka m'ka syri
TTITLE12=Nora
TTITLE13=Si Merlin Monroe
TTITLE14=Fol, vetem fol
TTITLE15=Iluzioni
EXTD=
EXTT0=
EXTT1=
EXTT2=
EXTT3=
EXTT4=
EXTT5=
EXTT6=
EXTT7=
EXTT8=
EXTT9=
EXTT10=
EXTT11=
EXTT12=
EXTT13=
EXTT14=
EXTT15=
PLAYORDER=
